# xmcd CD database file
# Generated: Dom Set 15 00:12:03 2002 by KSCD
# 
# Track frame offsets:
#       182
#       82207
#       105460
#       124750
#       147855
#
# Disc length: 2322 seconds
#
# Revision: 3
# Processed by: cddbd v1.4PL0 Copyright (c) Steve Scherf et al.
# Submitted via: Kscd 1.3.3
#
DISCID=3f091005
DTITLE=Pat Metheny - Zero Tolerance For Silence
DYEAR=1900
DGENRE=
TTITLE0=65430352
TTITLE1=65430360
TTITLE2=65430379
TTITLE3=65430387
TTITLE4=65430395
EXTD=
EXTT0=
EXTT1=
EXTT2=
EXTT3=
EXTT4=
PLAYORDER=
